<svg width="82" height="72" viewBox="0 0 82 72" fill="none" xmlns="http://www.w3.org/2000/svg">
<g clip-path="url(#clip0_127_28616)">
<path d="M73.4434 55.7799H73.4391C73.3067 56.9184 73.3089 57.9041 73.0654 58.8263C72.3543 61.525 70.0481 63.1298 66.988 63.1341C60.9021 63.1447 54.8162 63.1341 48.7323 63.1404C47.7522 63.1404 47.2482 63.5517 47.2397 64.3043C47.2333 65.0569 47.7501 65.5169 48.7025 65.5169C54.9208 65.5254 61.1413 65.5762 67.3596 65.4978C71.4703 65.4469 74.6777 62.8775 75.4827 59.032C75.7731 57.6519 75.7005 56.1891 75.7155 54.7624C75.7197 54.2557 75.8222 53.8614 76.0999 53.4862H76.102C76.166 53.3992 76.2408 53.3144 76.3262 53.2296L73.4434 55.7799ZM41.8136 36.9929C35.354 36.9781 28.8965 36.9802 22.4368 36.976C22.3621 36.976 22.2852 36.9463 22.1635 36.9187C21.824 33.2957 20.3463 31.551 17.6385 31.5319C14.8753 31.5107 13.4232 33.1706 12.9855 36.9654C12.3149 36.836 11.6402 36.7534 10.991 36.5753C5.96422 35.2037 2.44932 30.6564 2.40448 25.4858C2.39167 23.8683 2.3938 22.2529 2.40448 20.6353C2.4237 17.2116 4.85167 14.7186 8.29396 14.5723C8.5075 14.5638 8.72104 14.5638 8.93458 14.5638C28.2302 14.5638 47.5258 14.5638 66.8215 14.5659C70.0588 14.5659 72.491 16.2216 73.1039 19.0242C73.3815 20.2898 73.3174 21.6317 73.422 23.1178L73.4263 23.1221C73.4263 23.1221 73.4284 23.1221 73.4306 23.1242L73.4413 23.1327L76.2152 25.5473C76.1554 25.4858 76.102 25.4264 76.055 25.3628C76.055 25.3607 76.0507 25.3586 76.0465 25.3544C75.8137 25.0491 75.724 24.729 75.7219 24.3135C75.7112 22.6196 75.7753 20.9131 75.5831 19.2362C75.1731 15.6407 72.1237 12.7216 68.4956 12.2933C67.9127 12.2234 67.3254 12.1852 66.7403 12.1852C62.4161 12.1746 58.0919 12.1789 53.7698 12.1789H52.8089C52.8089 10.8412 52.8153 9.57767 52.8067 8.31418C52.7854 5.48192 51.6984 3.16905 49.3666 1.49004C47.9636 0.478826 46.3727 0.0124356 44.6409 0.0145556C40.1309 0.0166755 35.6188 -0.0257235 31.1088 0.0251554C26.3489 0.0802742 22.9493 3.55064 22.9173 8.2845C22.9088 9.55011 22.9152 10.8178 22.9152 12.1789H9.10328C4.22813 12.181 1.29193 14.4684 0.100365 19.1895C0.0875521 19.2341 0.0341667 19.268 0 19.3061V58.2624C0.0448438 58.3832 0.1025 58.502 0.132396 58.627C1.10828 62.9369 4.19182 65.4893 8.57583 65.5148C14.1535 65.5508 19.7334 65.5275 25.3111 65.5211C26.3276 65.5211 26.8828 65.0929 26.8977 64.3424C26.9148 63.5856 26.3596 63.1553 25.3538 63.1404C25.1403 63.1383 24.9267 63.1404 24.7132 63.1404C19.3469 63.1383 13.9827 63.1574 8.61641 63.1341C4.89224 63.1171 2.40661 60.6092 2.40448 56.9141C2.39807 49.3098 2.40234 41.7034 2.40448 34.0992C2.40448 33.8787 2.43224 33.6582 2.45786 33.2766C3.77755 35.1189 5.3001 36.5011 7.12589 37.5462C8.94953 38.5892 10.9312 39.1468 13.0581 39.3715C13.0581 40.2089 13.0517 40.9763 13.0581 41.7416C13.0688 42.5896 13.0346 43.4418 13.12 44.2813C13.3613 46.6535 15.6611 48.4449 18.0357 48.1545C20.4359 47.8619 22.0802 46.0366 22.1037 43.622C22.1165 42.2271 22.1058 40.8321 22.1058 39.4245H42.1745L42.435 36.3993C42.435 36.3993 42.4329 36.412 42.4307 36.4226C42.3667 36.7873 42.2684 36.9929 41.8115 36.9929H41.8136ZM45.4417 12.1428H30.2952C30.2952 10.7394 30.2653 9.36779 30.3272 8.00254C30.3379 7.77359 30.718 7.48739 30.9913 7.36656C31.2369 7.25632 31.5679 7.3284 31.8626 7.3284C35.9711 7.32628 40.0818 7.32628 44.1925 7.3284C45.2858 7.3284 45.4374 7.48103 45.4417 8.57069C45.4459 9.73242 45.4417 10.8942 45.4417 12.1428ZM25.5631 6.60125C26.0008 4.22054 28.2302 2.46946 30.6774 2.43766C35.4501 2.37406 40.227 2.36558 45.0018 2.43766C47.7757 2.47794 50.0179 4.58518 50.3104 7.339C50.4578 8.72757 50.383 10.1416 50.4044 11.5429C50.4065 11.7231 50.3788 11.9033 50.3595 12.1513H47.844V10.0928C47.8419 9.40595 47.8696 8.71485 47.8333 8.02798C47.7372 6.22602 46.5051 4.97101 44.7135 4.95829C40.1522 4.92861 35.591 4.92649 31.0297 4.95829C29.1698 4.97101 27.912 6.29386 27.8843 8.16578C27.8672 9.46107 27.8821 10.7564 27.8821 12.1174H25.2342C25.3282 10.2709 25.2342 8.40109 25.5631 6.60549V6.60125ZM15.5565 35.5344C15.6291 34.5422 16.6563 33.8745 17.7047 33.9211C18.7596 33.9677 19.6416 34.7691 19.6843 35.8418C19.7355 37.1858 19.6971 38.5341 19.6971 39.9778H15.5288C15.5288 38.4705 15.4519 36.995 15.5565 35.5344ZM18.7191 45.4642C18.0016 45.937 17.0043 45.8946 16.3146 45.3688C15.3152 44.6035 15.4241 43.5499 15.5117 42.4454H19.6565C19.7718 43.6156 19.8402 44.7244 18.7191 45.4642Z" fill="#142F5E"/>
<path d="M81.4315 34.8026C80.5709 31.2432 78.8327 28.1565 76.2317 25.5638C76.2253 25.5575 76.2211 25.5532 76.2147 25.5469L73.4408 23.1322L73.4301 23.1238C73.4301 23.1238 73.4279 23.1216 73.4258 23.1216L73.4215 23.1174C73.0009 22.88 72.7745 22.7612 72.5546 22.6298C60.3784 15.2418 44.7173 22.386 42.4388 36.3798V36.3989L42.1761 39.4241C42.2188 43.541 43.3805 47.2827 45.7038 50.6916C44.9265 51.4442 44.2176 52.1629 43.4659 52.837C43.2823 53.0024 42.962 53.1084 42.7121 53.0935C41.8259 53.0427 41.0913 53.3119 40.4678 53.9309C37.2433 57.1363 33.9996 60.3247 30.7922 63.5513C28.7977 65.5568 28.8105 68.6031 30.758 70.5471C32.6628 72.4508 35.7592 72.5081 37.7494 70.5747C41.0294 67.3863 44.2517 64.1406 47.4976 60.9162C48.1168 60.3035 48.4051 59.5658 48.3517 58.6902C48.3389 58.4761 48.3667 58.1878 48.4991 58.0479C49.2401 57.2529 50.0195 56.4939 50.7477 55.7604C58.2836 60.3353 65.7554 60.3501 73.4386 55.7816C73.4386 55.7816 73.4408 55.7816 73.4429 55.7816L76.3257 53.2313C78.7921 50.7468 80.4748 47.8043 81.3461 44.4208C81.6151 43.3757 81.7838 42.3072 81.9995 41.2515V37.7536C81.8137 36.7699 81.6664 35.7756 81.4315 34.8047V34.8026ZM42.648 62.3514C40.4849 64.5053 38.3388 66.674 36.1478 68.7982C34.6616 70.2376 32.3617 69.6631 31.8065 67.7488C31.5417 66.8351 31.7425 65.9913 32.4045 65.3257C34.6466 63.0679 36.9166 60.8377 39.1951 58.5779C40.4144 59.7926 41.5761 60.9522 42.7762 62.15C42.7527 62.1881 42.7164 62.2835 42.648 62.3514ZM44.6639 60.3226C43.4574 59.1312 42.2765 57.961 41.0636 56.7611C41.0614 56.7674 41.0614 56.7717 41.0572 56.7738C41.0572 56.7632 41.0636 56.7314 41.0828 56.7102C41.9426 55.7859 42.8231 55.7682 43.7243 56.6572C44.4802 57.3949 45.2639 58.1072 46.0989 58.8895C45.5031 59.4852 45.0568 59.9304 44.6639 60.3226ZM46.7011 56.2099C46.2206 55.7202 45.7038 55.1965 45.2041 54.6899C45.8875 54.0348 46.5815 53.3691 47.2883 52.6908C47.7239 53.1571 48.2428 53.7168 48.7468 54.2553C48.1168 54.8573 47.4335 55.5103 46.7011 56.2099ZM62.1572 56.8247C52.4859 56.8522 44.6254 49.0974 44.5827 39.4877C44.5422 29.9182 52.3941 22.0871 62.0654 22.0511C71.6598 22.0171 79.5609 29.8165 79.595 39.3584C79.6313 48.9618 71.8072 56.7992 62.1572 56.8247Z" fill="#FD7F18"/>
<path d="M62.1267 25.1292C68.7935 25.1525 74.5591 29.668 76.0966 36.0702C76.3144 36.9797 76.0219 37.603 75.2958 37.7683C74.5484 37.9379 74.0381 37.5648 73.7797 36.6342C72.5668 32.2607 69.8356 29.2503 65.4345 28.0081C60.7494 26.6852 56.5639 27.8236 53.2562 31.3936C49.9933 34.9149 49.1903 39.1209 50.8517 43.5812C52.528 48.0798 55.9319 50.7043 60.7558 51.2746C66.7285 51.9826 72.1461 48.2515 73.7007 42.4937C73.7412 42.3411 73.7839 42.1863 73.8309 42.0358C74.0722 41.2768 74.6637 40.9165 75.3471 41.1073C75.9792 41.2832 76.3144 41.898 76.1479 42.6209C75.5969 45.0165 74.5399 47.1788 72.8401 48.9638C68.5885 53.4305 63.4058 54.8912 57.5377 52.9748C51.8532 51.1177 48.5903 46.9901 47.781 41.12C46.6193 32.6762 53.4804 25.0974 62.1246 25.127L62.1267 25.1292Z" fill="#FD7F18"/>
</g>
<defs>
<clipPath id="clip0_127_28616">
<rect width="82" height="72" fill="white"/>
</clipPath>
</defs>
</svg>
