<svg width="88" height="88" viewBox="0 0 88 88" fill="none" xmlns="http://www.w3.org/2000/svg">
<g clip-path="url(#clip0_127_28625)">
<path d="M84.9854 67.8336H61.6244C61.6244 64.6436 61.6129 61.6071 61.6451 58.573C61.6474 58.2773 61.8818 57.9428 62.0909 57.6953C65.9216 53.16 69.7798 48.6501 73.5898 44.0988C74.8376 42.6092 76.0463 41.0715 77.1149 39.4536C77.9789 38.1405 78.342 36.6073 78.0571 35.0146C77.517 32.0103 74.5504 30.0463 71.1655 30.4496C69.2858 30.6742 67.4107 30.9584 65.5332 31.2082C63.3801 31.4946 61.2246 31.7719 58.968 32.0676C59.1633 27.8509 58.428 23.978 55.6061 20.7719C52.7796 17.5567 49.1259 16.0282 44.8999 15.8219C41.0072 15.6317 37.4316 16.608 34.3569 19.0578C30.1977 22.3715 28.9545 26.9021 29.2003 32.0607C26.4658 31.7055 23.8507 31.3548 21.2334 31.034C19.4134 30.8094 17.5842 30.4313 15.7619 30.4565C11.1499 30.5207 8.64748 34.4417 10.495 38.6492C11.0167 39.834 11.7796 40.9569 12.616 41.9561C17.0281 47.2361 21.5045 52.4657 25.9373 57.7296C26.1854 58.0253 26.3486 58.4813 26.3647 58.8709C26.4175 60.1863 26.3785 61.5063 26.3854 62.824C26.3854 62.9478 26.3923 63.0623 26.4037 63.1723V67.8336H3.27717C2.96006 67.8336 2.64524 67.8267 2.32812 67.8451C0.92637 67.9253 0.0347659 68.803 0.0209782 70.2123C-0.00659724 72.6759 -0.00659724 75.1394 0.0186802 77.603C0.0324679 79.0169 0.889603 79.8855 2.30744 80.0023C2.75094 80.039 3.19904 80.0459 3.70229 80.0688C3.70229 82.1565 3.72757 84.1571 3.6908 86.1578C3.67702 86.9346 3.88613 87.5488 4.52726 88.0003H83.4802C84.1145 87.5442 84.3511 86.9301 84.3098 86.1532C84.2661 85.3534 84.3006 84.549 84.3006 83.7492V80.0596C84.6453 80.0436 84.8728 80.0253 85.1003 80.0207C87.2167 79.9794 87.9957 79.1957 87.998 77.0828C88.0003 74.9928 88.0003 72.9005 87.998 70.8105C87.9957 68.5967 87.2282 67.8336 84.9854 67.8336ZM58.8186 34.7076C60.8385 34.4348 62.9618 34.1484 65.0874 33.8619C67.0476 33.6007 69.01 33.3394 70.9725 33.0828C71.2551 33.0438 71.5401 33.0003 71.8273 32.9957C74.902 32.9498 76.3083 35.0536 75.0513 37.8357C74.8284 38.3284 74.5826 38.8326 74.2425 39.2451C71.7837 42.2242 69.2973 45.1805 66.7351 48.2444C64.6554 45.8863 62.6677 43.6359 60.6202 41.3167C61.135 41.0417 61.5831 40.8057 62.0289 40.5628C62.9205 40.0815 63.2054 39.4009 62.8125 38.6836C62.4356 37.9984 61.7393 37.8334 60.8822 38.2596C59.7102 38.8417 58.5498 39.4421 57.3387 40.0586C57.8351 38.2642 58.3108 36.5455 58.8186 34.7076ZM50.0542 19.7338C53.8918 21.558 55.8727 24.7457 56.3276 29.1159C48.7628 28.5063 42.0804 26.4392 37.165 20.2128C41.4806 17.9257 45.7617 17.6942 50.0542 19.7338ZM35.0923 21.8582C36.262 23.1048 37.3948 24.3103 38.5668 25.5569C36.864 27.5713 34.681 28.7263 31.8912 29.0128C32.0866 26.1871 33.1482 23.8267 35.0923 21.8582ZM40.7177 27.0282C45.5158 30.0417 50.7643 31.3709 56.3943 31.6803C56.0519 36.9626 54.7214 41.7086 50.0818 44.8092C45.0056 48.2009 38.3301 46.709 34.7269 41.4863C32.9414 38.9013 31.7855 35.0284 31.8246 31.6367C35.4232 31.3159 38.4059 29.8469 40.7177 27.0282ZM48.3101 48.5355C48.3377 50.2886 47.7011 51.6223 46.2718 52.4955C44.746 53.4282 43.1581 53.4144 41.6506 52.4428C40.2374 51.5353 39.6399 50.1878 39.7043 48.4484C42.5836 49.388 45.4032 49.4017 48.3101 48.5355ZM20.8404 47.7036C18.7148 45.1828 16.5295 42.7101 14.4705 40.1365C13.7007 39.1717 13.0527 38.0373 12.6505 36.8755C12.0255 35.0696 12.9171 33.5709 14.8106 33.2157C15.9067 33.0094 17.0902 33.1103 18.2138 33.2409C21.6355 33.6373 25.0434 34.1346 28.4627 34.5471C29.182 34.6342 29.5267 34.8588 29.6829 35.6196C29.9931 37.1207 30.455 38.5919 30.8824 40.1709C29.6829 39.559 28.5385 38.9701 27.3873 38.388C26.2728 37.8242 25.5673 37.9388 25.172 38.7317C24.786 39.5063 25.1261 40.1296 26.2544 40.7094C26.6083 40.8905 26.9598 41.0738 27.3965 41.3007C25.3536 43.6176 23.3681 45.8703 21.1759 48.359C21.0472 48.1023 20.9806 47.8709 20.8404 47.7036ZM28.9361 63.2388C28.9545 63.1173 28.9637 62.9844 28.966 62.8446C28.9797 61.3826 28.9338 59.9205 28.9843 58.463C29.0119 57.6311 28.7499 56.9871 28.2076 56.3638C26.4589 54.354 24.7515 52.3098 23.0395 50.2932C23.074 50.2015 23.0809 50.1373 23.1154 50.0961C25.2318 47.6807 27.3436 45.2607 29.4922 42.8751C29.6324 42.7192 30.1195 42.7101 30.3539 42.8223C32.2658 43.7344 34.0858 44.7519 35.715 46.1728C36.6825 47.0184 37.165 47.7173 37.1513 49.0373C37.1191 52.6696 40.1432 55.6236 43.7716 55.7153C47.4897 55.8092 50.7115 53.0615 50.8241 49.4086C50.87 47.903 51.3802 47.0848 52.5222 46.159C54.1147 44.8711 55.7279 43.6955 57.5777 42.8201C58.0879 42.5794 58.3659 42.6367 58.729 43.0607C60.3376 44.9307 61.9852 46.7663 63.6144 48.618C64.0832 49.1496 64.5451 49.6882 65.0185 50.2313C63.2996 52.2594 61.6543 54.2509 59.9492 56.1851C59.3035 56.9184 58.9979 57.6678 59.0185 58.6578C59.0737 61.378 59.0369 64.1005 59.0369 66.8207V67.8336H28.9361V63.2388ZM81.6556 85.3648H6.34034V80.0184H7.48242C18.485 80.0184 29.4899 80.0207 40.4925 80.0161H48.5307C59.184 80.0207 69.8373 80.0184 80.4929 80.0184H81.6556V85.3648ZM85.3416 77.4403H84.2064C72.3145 77.4403 60.4226 77.4403 48.5307 77.4426V77.4288L40.7774 77.4426H40.458C28.2467 77.4403 16.0377 77.4403 3.82868 77.4403H2.65902V70.4782H85.3416V77.4403Z" fill="#142F5E"/>
<path d="M15.4924 2.00458C16.5724 2.80208 16.6598 3.33833 15.8624 4.43146C14.564 6.20979 13.2588 7.98125 11.8226 9.94063C12.9693 9.94063 13.9505 9.93375 14.9317 9.94292C15.3591 9.9475 15.8003 9.92688 16.214 10.0185C16.8505 10.1606 17.1998 10.6373 17.1722 11.2721C17.1446 11.9412 16.7609 12.466 16.0623 12.4798C13.7391 12.521 11.4112 12.5462 9.08802 12.4683C8.03556 12.434 7.66329 11.2721 8.34348 10.3187C9.35918 8.89562 10.4093 7.5 11.4434 6.09292C11.7766 5.63917 12.1052 5.18083 12.5395 4.58042C11.5905 4.58042 10.8 4.56208 10.0118 4.585C9.26955 4.60792 8.60545 4.48875 8.3251 3.705C8.04015 2.90979 8.50893 2.41021 9.11559 2H15.4947L15.4924 2.00458Z" fill="#FD7F18"/>
<path d="M21.3502 22.117C22.2648 22.117 23.0116 22.0964 23.7539 22.1216C24.5512 22.1491 25.0982 22.6853 25.1005 23.3866C25.1028 24.0855 24.5581 24.6607 23.7653 24.6768C22.1315 24.7089 20.4954 24.718 18.8615 24.6768C17.5976 24.6447 17.0599 23.547 17.7884 22.5066C18.6708 21.2461 19.6038 20.0224 20.6516 18.597C19.8083 18.597 19.1626 18.613 18.5168 18.5924C17.5264 18.5649 17.0117 18.1249 17.0002 17.3297C16.9887 16.5024 17.5264 16.0326 18.5582 16.0234C20.0197 16.0097 21.4858 15.9661 22.9427 16.0509C23.4161 16.0784 24.1008 16.3741 24.264 16.7361C24.4478 17.1464 24.3031 17.8591 24.0411 18.283C23.3839 19.3509 22.5796 20.3295 21.8397 21.347C21.6857 21.5601 21.5524 21.7893 21.3456 22.1124L21.3502 22.117Z" fill="#FD7F18"/>
</g>
<defs>
<clipPath id="clip0_127_28625">
<rect width="88" height="88" fill="white"/>
</clipPath>
</defs>
</svg>
