<svg width="90" height="90" viewBox="0 0 90 90" fill="none" xmlns="http://www.w3.org/2000/svg">
<g clip-path="url(#clip0_127_28588)">
<path d="M44.9904 71.5498C30.2985 71.5278 18.3711 59.5699 18.4417 44.9335C18.5124 30.2509 30.3789 18.422 45.0196 18.4414C59.7115 18.4585 71.6365 30.414 71.5707 45.0552C71.5025 59.733 59.6263 71.5717 44.9928 71.5522L44.9904 71.5498ZM62.247 62.2045C70.9667 53.8892 72.5986 38.3689 62.4711 27.9085C52.5044 17.6136 35.8932 18.1468 26.4258 29.1722C17.1947 39.9224 19.7643 54.8047 27.7922 62.1874C30.6298 58.1406 34.4148 55.3696 39.1083 53.916C39.3104 52.6157 39.1594 51.6198 38.0853 50.6459C36.9357 49.6086 36.1002 48.2061 35.2185 46.9009C34.7923 46.2678 34.5341 45.6567 33.5818 45.6226C33.0776 45.6031 32.5076 45.1746 32.1155 44.7825C30.6663 43.324 30.111 41.5489 30.5323 39.5206C30.7832 38.3081 31.4335 37.4339 32.7074 37.0687C32.9582 36.9956 33.1848 36.533 33.2505 36.214C33.3041 35.9535 33.0946 35.6418 33.007 35.352C31.7063 31.1006 33.3017 27.9742 37.4691 26.6252C37.8442 26.5035 38.2509 26.4767 38.6138 26.3306C39.1034 26.1334 39.6319 25.9459 40.0265 25.6123C42.5133 23.5158 45.3168 22.4956 48.5659 23.1384C51.3304 23.6863 53.6662 25.0912 55.6123 27.1074C56.8009 28.3394 57.5145 29.8369 57.8287 31.5292C58.1746 33.3919 57.9651 35.2157 57.4999 36.8861C58.0674 37.4266 58.6764 37.8235 59.0368 38.3835C60.3886 40.4922 59.3072 44.2542 57.0664 45.401C56.7497 45.5642 56.3576 45.5836 56.0385 45.7419C55.7024 45.9099 55.3273 46.1071 55.1081 46.3945C54.0291 47.8189 53.1596 49.4479 51.8955 50.6702C50.8555 51.6758 50.6971 52.6498 50.9237 53.9233C55.6415 55.3648 59.4022 58.1649 62.2446 62.1996L62.247 62.2045ZM40.5672 32.9122C40.2676 33.3091 40.0484 33.7352 39.7123 34.0226C38.6601 34.9235 37.6444 35.9072 36.4583 36.5914C35.6935 37.0321 35.1528 37.3219 35.1357 38.3105C35.1187 39.2358 34.5098 39.6132 33.6305 39.2966C32.9485 39.0507 32.7049 39.3575 32.5953 39.8908C32.3323 41.1667 32.6489 42.3135 33.5623 43.2461C33.7547 43.4433 34.1761 43.5724 34.444 43.5139C35.713 43.2437 35.8274 43.2729 36.356 44.483C37.1671 46.3409 38.2461 48.0234 39.7367 49.4113C43.2026 52.6376 47.1216 52.5548 50.4755 49.1971C51.8687 47.8019 52.899 46.168 53.6833 44.3662C54.146 43.2972 54.3555 43.2193 55.4954 43.4969C55.7073 43.548 55.9874 43.5261 56.1749 43.4263C57.2052 42.8736 57.836 40.6164 57.2856 39.5791C57.0713 39.1773 56.8569 39.0629 56.438 39.377C55.4247 40.1318 55.0009 39.9955 54.4529 38.817C53.7977 37.4071 52.709 36.4721 51.2257 36.0777C50.4122 35.8609 49.5475 35.7709 48.7048 35.7562C45.9086 35.7075 43.3975 34.8431 41.1153 33.2629C40.9448 33.146 40.767 33.0389 40.5721 32.9147L40.5672 32.9122ZM35.8348 57.6682C33.2359 59.0318 30.2376 61.9001 29.4485 63.7555C38.7868 71.764 52.6067 70.8777 60.5883 63.6825C59.2999 61.3985 56.1238 58.4644 54.1485 57.7315C50.1467 65.2019 39.8706 65.1922 35.8372 57.6658L35.8348 57.6682ZM55.3395 36.2505C56.4916 33.8326 55.9046 30.4481 53.9853 28.488C52.5336 27.0075 50.797 25.9727 48.7925 25.4029C46.6174 24.7844 44.4594 24.9622 42.7033 26.3306C41.1153 27.5676 39.4347 28.32 37.5397 28.9165C34.8361 29.7687 33.9642 32.2694 35.2624 35.0185C35.8956 34.5923 36.5825 34.2515 37.1062 33.7401C37.7541 33.1095 38.3264 32.3814 38.8209 31.6242C40.0606 29.7176 40.0363 29.7079 41.8606 31.1567C43.775 32.6785 45.9598 33.5916 48.4003 33.6135C51.0649 33.6378 53.4567 34.2125 55.3395 36.2481V36.2505ZM37.8149 56.6236C39.1424 59.5455 42.3087 61.4083 45.441 61.2159C48.4271 61.0333 51.423 59.0123 52.1512 56.6869C52.1098 56.6455 52.0733 56.5871 52.0221 56.5652C51.7688 56.4629 51.518 56.3412 51.2549 56.2803C49.6011 55.9077 48.1032 55.4183 48.8144 52.998C46.2082 54.1789 43.7969 54.1668 41.332 53.054C41.332 53.5191 41.332 53.7894 41.332 54.0596C41.3247 55.3769 41.2054 55.5255 39.9437 55.9126C39.2544 56.1245 38.5749 56.3655 37.8149 56.6212V56.6236Z" fill="#142F5E"/>
<path d="M82.8924 45.3384C82.0959 46.1736 81.3116 47.0234 80.5006 47.8415C79.8405 48.5087 79.2218 48.5939 78.7615 48.0752C78.1794 47.4203 78.4692 46.8675 79.0099 46.3343C80.4202 44.9464 81.8085 43.5365 83.2139 42.1413C83.9762 41.3841 84.4682 41.3792 85.2282 42.1316C86.6555 43.5463 88.0633 44.9804 89.4881 46.3951C90.0094 46.9113 90.2115 47.469 89.7025 48.0801C89.2567 48.6134 88.643 48.5257 87.9707 47.8634C87.1328 47.0355 86.3096 46.1906 85.3475 45.2191C85.2379 46.6581 85.1697 47.8902 85.0455 49.1174C83.3576 65.6896 71.6494 79.4786 55.5594 83.8542C55.384 83.9029 55.2038 83.9418 55.0284 83.9905C54.3318 84.1829 53.7911 83.9881 53.5914 83.2746C53.3868 82.5442 53.8033 82.1424 54.4707 81.9208C56.3145 81.3072 58.2265 80.8373 59.9826 80.0337C73.4518 73.8685 81.0924 63.3885 82.9752 48.7108C83.1116 47.6394 83.114 46.5534 83.1798 45.4723C83.0848 45.426 82.9898 45.3822 82.8924 45.3359V45.3384Z" fill="#FD7F18"/>
<path d="M4.57342 44.7586C4.84865 42.3553 4.92903 40.1833 5.36258 38.0869C8.78468 21.561 18.615 10.8814 34.8048 6.07236C35.6987 5.80695 36.2808 6.05044 36.4245 6.70788C36.6096 7.56497 36.1006 7.9156 35.365 8.10796C28.7449 9.85138 22.9651 13.0971 18.1376 17.9427C11.0182 25.0892 7.30136 33.7527 6.87512 43.826C6.86781 44.0086 6.86538 44.1912 6.87512 44.3739C6.87512 44.4226 6.92627 44.4688 7.03831 44.6563C7.92733 43.7529 8.78955 42.8715 9.65664 41.9998C10.1584 41.4933 10.7308 41.3716 11.2617 41.9C11.7537 42.3894 11.6807 42.9567 11.2033 43.4388C9.68344 44.9753 8.15628 46.5044 6.61938 48.0263C6.06648 48.5741 5.48923 48.5546 4.93877 48.0043C3.43354 46.4971 1.92586 44.9899 0.425499 43.4754C-0.0786824 42.9665 -0.168802 42.387 0.364607 41.8708C0.868789 41.3813 1.42899 41.4933 1.89907 41.9706C2.7686 42.8569 3.62108 43.7627 4.57586 44.7561L4.57342 44.7586Z" fill="#FD7F18"/>
<path d="M45.356 7.12693C46.1914 7.92315 47.0244 8.71938 47.8623 9.51316C48.4079 10.0294 48.6953 10.5943 48.1156 11.2541C47.6699 11.763 47.0317 11.6729 46.379 11.0277C44.9517 9.613 43.5293 8.19587 42.1166 6.76899C41.3859 6.03121 41.3834 5.56127 42.1068 4.83079C43.539 3.37957 44.9906 1.94783 46.4277 0.501476C46.9489 -0.0220342 47.5359 -0.221699 48.1034 0.335901C48.6831 0.905675 48.4542 1.49249 47.9305 2.00383C47.0707 2.84388 46.2158 3.6888 45.2147 4.67252C46.6932 4.78452 47.9305 4.8527 49.1581 4.97445C65.8204 6.64968 79.8449 18.6831 83.9466 34.817C84.178 35.7277 83.966 36.295 83.2987 36.4289C82.4462 36.5994 82.0979 36.088 81.9055 35.3551C80.0544 28.3668 76.5446 22.3355 71.286 17.378C64.2494 10.7452 55.8512 7.2852 46.189 6.88587C45.9576 6.87613 45.7238 6.88587 45.49 6.88587C45.4437 6.96866 45.3998 7.04901 45.3536 7.1318L45.356 7.12693Z" fill="#FD7F18"/>
<path d="M44.7551 82.8101C44.0122 82.16 43.2669 81.5123 42.5289 80.8548C42.3024 80.6528 42.0881 80.4336 41.8908 80.2023C41.4718 79.7153 41.4475 79.1869 41.9029 78.734C42.3584 78.2787 42.9162 78.2811 43.3716 78.7267C44.9573 80.2802 46.5258 81.8556 48.0822 83.4383C48.562 83.9253 48.5669 84.4926 48.0871 84.9821C46.5502 86.5429 45.0011 88.0915 43.4398 89.6279C42.96 90.1003 42.3828 90.1417 41.9029 89.645C41.4207 89.1434 41.5132 88.5833 41.9833 88.1061C42.8553 87.2222 43.7467 86.3529 44.8062 85.301C44.2777 85.2621 43.9708 85.228 43.6639 85.2183C25.9957 84.6485 10.7533 72.5907 6.1353 55.5291C6.10364 55.4122 6.08415 55.2905 6.05493 55.1736C5.82841 54.2727 6.04762 53.7053 6.7223 53.5714C7.58208 53.401 7.9109 53.9245 8.10575 54.6574C10.1127 62.1813 14.0049 68.556 19.8797 73.6742C26.7872 79.6934 34.8688 82.7833 44.0147 83.1218C44.1852 83.1291 44.3532 83.1218 44.5237 83.1218C44.6017 83.0195 44.6772 82.9172 44.7551 82.8125V82.8101Z" fill="#FD7F18"/>
</g>
<defs>
<clipPath id="clip0_127_28588">
<rect width="90" height="90" fill="white"/>
</clipPath>
</defs>
</svg>
