<svg width="240" height="50" viewBox="0 0 240 50" fill="none" xmlns="http://www.w3.org/2000/svg">
<path d="M72.5894 40.4175C72.5894 43.7659 70.9635 45.4444 67.7161 45.4444C64.4602 45.4358 62.8301 43.7616 62.8301 40.4175V39.5546H66.2257V40.4175C66.2257 41.495 66.7211 42.0359 67.7161 42.0359C68.7111 42.0359 69.1937 41.495 69.1937 40.4175V37.5198C68.7449 37.8504 68.2496 38.0178 67.7076 38.0178C64.4602 38.0178 62.8343 36.3436 62.8343 32.9909V18.391C62.8343 15.0469 64.4602 13.377 67.7076 13.377C70.9551 13.377 72.5936 15.0469 72.5936 18.391V40.4175H72.5894ZM69.1937 33.021V18.3953C69.1937 17.3264 68.7026 16.7855 67.7161 16.7769H67.6907C66.7126 16.7769 66.2257 17.3178 66.2257 18.3953V32.9952C66.2257 34.0727 66.7169 34.6136 67.7034 34.6136C68.6899 34.6136 69.1853 34.0813 69.1895 33.021H69.1937Z" fill="#142F5E"/>
<path d="M78.1339 37.6305H74.7383V8.59375H78.1339V37.6305Z" fill="#142F5E"/>
<path d="M90.0415 32.9948C90.0415 36.3389 88.4114 38.0131 85.1555 38.0217C81.9081 38.0217 80.2822 36.3475 80.2822 32.9948V18.3949C80.2822 15.0508 81.9081 13.3809 85.1555 13.3809C88.403 13.3809 90.0415 15.0508 90.0415 18.3949V32.9948ZM86.6459 18.3949C86.6459 17.326 86.1547 16.7851 85.1682 16.7765H85.1428C84.1648 16.7765 83.6779 17.3174 83.6779 18.3949V32.9948C83.6779 34.0723 84.169 34.6132 85.1555 34.6132C86.142 34.6132 86.6416 34.0723 86.6416 32.9948V18.3949H86.6459Z" fill="#142F5E"/>
<path d="M101.947 32.9942C101.947 36.3426 100.321 38.0211 97.0735 38.0211C93.8176 38.0125 92.1875 36.3383 92.1875 32.9942V8.59375H95.5831V14.1444C96.2563 13.6335 97.1328 13.376 98.2124 13.376C100.702 13.3846 101.947 15.0588 101.947 18.4029V32.9942ZM95.5874 32.9942C95.5874 34.0717 96.0828 34.6126 97.0777 34.6126C98.0727 34.6126 98.5554 34.0717 98.5554 32.9942V18.4029C98.5554 17.3254 98.06 16.7845 97.0693 16.7845C96.0785 16.7845 95.6001 17.3211 95.5916 18.39V32.9899L95.5874 32.9942Z" fill="#142F5E"/>
<path d="M110.453 18.391C110.453 17.3135 109.967 16.7726 108.989 16.7726H108.963C107.981 16.7812 107.485 17.3221 107.485 18.391V21.602H104.09V18.391C104.09 15.0469 105.72 13.377 108.976 13.377C112.232 13.377 113.849 15.0469 113.849 18.391V32.9909C113.849 36.3393 112.223 38.0178 108.976 38.0178C105.72 38.0092 104.09 36.335 104.09 32.9909V28.9857C104.09 25.6416 105.335 23.9674 107.824 23.9588C108.904 23.9588 109.78 24.2121 110.453 24.7272V18.3867V18.391ZM107.49 32.9909C107.49 34.0684 107.985 34.6093 108.98 34.6093C109.975 34.6093 110.458 34.0684 110.458 32.9909V28.9771C110.449 27.9039 109.958 27.3716 108.98 27.3716C108.002 27.3716 107.49 27.9125 107.49 28.99V32.9952V32.9909Z" fill="#142F5E"/>
<path d="M119.398 37.6305H116.002V8.59375H119.398V37.6305Z" fill="#142F5E"/>
<path d="M126.471 13.7537H129.1V17.1494H126.471V37.6305H123.075V17.1494H120.641V13.7537H123.075V8.59375H126.471V13.7537Z" fill="#FD7F18"/>
<path d="M139.927 32.9948C139.927 36.3389 138.297 38.0131 135.041 38.0217C131.794 38.0217 130.168 36.3475 130.168 32.9948V18.3949C130.168 15.0508 131.794 13.3809 135.041 13.3809C138.289 13.3809 139.927 15.0508 139.927 18.3949V32.9948ZM136.532 18.3949C136.532 17.326 136.04 16.7851 135.054 16.7765H135.029C134.051 16.7765 133.564 17.3174 133.564 18.3949V32.9948C133.564 34.0723 134.055 34.6132 135.041 34.6132C136.028 34.6132 136.532 34.0723 136.532 32.9948V18.3949Z" fill="#FD7F18"/>
<path d="M148.423 13.752H151.831V33.2328C151.903 34.1515 152.386 34.6065 153.283 34.6065H153.309C154.291 34.5979 154.787 34.0571 154.787 32.9881V13.752H158.182V32.9881C158.182 36.3323 156.552 38.0022 153.296 38.0022C151.967 38.0022 150.912 37.7231 150.129 37.1608C149.337 37.7188 148.275 38.0022 146.949 38.0022C143.702 38.0022 142.076 36.3323 142.076 32.9881V13.752H145.472V32.9881C145.472 34.0656 145.959 34.6065 146.937 34.6065H146.962C147.868 34.5979 148.355 34.1386 148.427 33.2328V13.752H148.423Z" fill="#FD7F18"/>
<path d="M163.726 37.6311H160.33V18.3949C160.33 15.0508 161.956 13.3809 165.203 13.3809C168.451 13.3809 170.089 15.0508 170.089 18.3949V37.6311H166.694V18.3949C166.694 17.326 166.203 16.7851 165.216 16.7765H165.191C164.213 16.7765 163.726 17.3174 163.726 18.3949V37.6311Z" fill="#FD7F18"/>
<path d="M172.234 18.391C172.234 15.0469 173.86 13.377 177.107 13.377C180.354 13.377 181.993 15.0469 181.993 18.391V21.602H178.597V18.391C178.597 17.3221 178.106 16.7812 177.12 16.7726H177.094C176.116 16.7726 175.629 17.3135 175.629 18.391V20.5589C175.629 21.6235 176.688 22.9242 178.809 24.4653C180.93 25.9979 181.989 27.8352 181.989 29.9773V32.9952C181.989 36.3436 180.363 38.0221 177.115 38.0221C173.86 38.0135 172.229 36.3393 172.229 32.9952V29.7842H175.625V32.9952C175.625 34.0727 176.121 34.6136 177.111 34.6136C178.102 34.6136 178.589 34.0727 178.589 32.9952V30.2693C178.589 29.1188 177.53 27.7708 175.409 26.2297C173.288 24.6972 172.229 22.8298 172.229 20.6318V18.391H172.234Z" fill="#142F5E"/>
<path d="M193.898 32.9948C193.898 36.3389 192.268 38.0131 189.012 38.0217C185.765 38.0217 184.139 36.3475 184.139 32.9948V18.3949C184.139 15.0508 185.765 13.3809 189.012 13.3809C192.259 13.3809 193.898 15.0508 193.898 18.3949V21.6059H190.502V18.3949C190.502 17.326 190.011 16.7851 189.025 16.7765H188.999C188.021 16.7765 187.534 17.3174 187.534 18.3949V32.9948C187.534 34.0723 188.025 34.6132 189.012 34.6132C189.998 34.6132 190.502 34.0723 190.502 32.9948V29.7838H193.898V32.9948Z" fill="#142F5E"/>
<path d="M199.443 37.6305H196.047V8.59375H199.443V14.1444C200.116 13.6335 200.992 13.376 202.072 13.376C204.561 13.3846 205.806 15.0588 205.806 18.4029V37.6305H202.411V18.4029C202.411 17.3254 201.915 16.7845 200.92 16.7845C199.925 16.7845 199.451 17.3211 199.443 18.39V37.6262V37.6305Z" fill="#142F5E"/>
<path d="M217.708 32.9948C217.708 36.3389 216.077 38.0131 212.822 38.0217C209.574 38.0217 207.948 36.3475 207.948 32.9948V18.3949C207.948 15.0508 209.574 13.3809 212.822 13.3809C216.069 13.3809 217.708 15.0508 217.708 18.3949V32.9948ZM214.312 18.3949C214.312 17.326 213.821 16.7851 212.834 16.7765H212.809C211.831 16.7765 211.344 17.3174 211.344 18.3949V32.9948C211.344 34.0723 211.835 34.6132 212.822 34.6132C213.808 34.6132 214.312 34.0723 214.312 32.9948V18.3949Z" fill="#142F5E"/>
<path d="M229.615 32.9948C229.615 36.3389 227.985 38.0131 224.729 38.0217C221.481 38.0217 219.855 36.3475 219.855 32.9948V18.3949C219.855 15.0508 221.481 13.3809 224.729 13.3809C227.976 13.3809 229.615 15.0508 229.615 18.3949V32.9948ZM226.219 18.3949C226.219 17.326 225.728 16.7851 224.741 16.7765H224.716C223.738 16.7765 223.251 17.3174 223.251 18.3949V32.9948C223.251 34.0723 223.742 34.6132 224.729 34.6132C225.715 34.6132 226.219 34.0723 226.219 32.9948V18.3949Z" fill="#142F5E"/>
<path d="M235.161 37.6305H231.766V8.59375H235.161V37.6305Z" fill="#142F5E"/>
<path d="M48.2843 8.51112L15.4795 6.0127L40.8325 17.1612C44.2154 18.6508 46.506 21.6472 46.8828 25.2832L49.0464 41.875L56.4431 21.3982C58.2129 15.4741 54.3346 9.35252 48.2885 8.51542L48.2843 8.51112Z" fill="#142F5E"/>
<path d="M13.7559 41.8706H49.0417L21.6099 31.4004L13.7559 41.8706Z" fill="#FD7F18"/>
<path d="M13.753 41.8707L15.4805 6.0127L5.39518 28.417C3.30359 34.5429 7.39361 41.201 13.753 41.8664V41.8707Z" fill="#FD7F18"/>
</svg>
