<?xml version="1.0" standalone="no"?>
<!DOCTYPE svg PUBLIC "-//W3C//DTD SVG 20010904//EN"
 "http://www.w3.org/TR/2001/REC-SVG-20010904/DTD/svg10.dtd">
<svg version="1.0" xmlns="http://www.w3.org/2000/svg"
 width="512.000000pt" height="512.000000pt" viewBox="0 0 512.000000 512.000000"
 preserveAspectRatio="xMidYMid meet">
<metadata>
Created by potrace 1.14, written by Peter Selinger 2001-2017
</metadata>
<g transform="translate(0.000000,512.000000) scale(0.100000,-0.100000)"
fill="#000000" stroke="none">
<path d="M0 4251 l0 -869 372 -324 c288 -250 832 -715 1259 -1074 12 -11 9 7
-12 74 -23 75 -35 126 -55 229 -2 13 -27 37 -59 58 -37 25 -64 53 -84 88 -28
50 -30 58 -36 213 -3 100 -1 189 6 235 12 85 48 199 62 199 10 0 3 -174 -9
-254 -5 -26 -3 -37 4 -32 7 4 15 -9 22 -33 6 -22 16 -43 22 -47 7 -5 9 -2 5 9
-3 8 -9 77 -13 151 l-7 136 42 0 c38 0 41 -2 41 -27 0 -41 13 -55 46 -51 27 3
29 0 32 -36 l3 -38 122 6 c67 3 173 9 234 12 l113 6 0 39 c0 38 1 39 35 39 34
0 35 1 35 39 0 37 2 40 33 43 l32 3 3 78 3 77 48 0 c27 0 69 3 95 6 l46 7 0
-70 c0 -43 6 -82 15 -99 8 -16 15 -36 15 -45 0 -9 7 -19 15 -23 8 -3 15 -11
15 -18 0 -7 10 -19 21 -26 20 -13 21 -12 17 17 -4 29 -3 31 28 31 29 0 33 -4
41 -37 l9 -38 125 2 c68 2 174 6 236 9 l112 6 3 41 c3 39 5 42 35 45 29 3 32
7 35 40 3 35 5 37 41 40 36 3 37 4 37 42 0 38 1 39 38 42 32 3 37 7 40 31 3
27 25 36 47 19 6 -4 11 -50 12 -102 1 -52 4 -120 8 -150 6 -65 -6 -146 -23
-143 -7 2 -12 -2 -12 -7 0 -6 4 -10 8 -10 4 0 8 -9 8 -20 0 -12 -5 -19 -13
-16 -7 3 -15 1 -18 -5 -4 -5 1 -12 9 -15 11 -4 12 -11 6 -22 -15 -29 -23 -56
-27 -87 -2 -16 -8 -32 -13 -33 -7 -3 -7 -9 1 -18 9 -11 9 -17 0 -28 -6 -8 -11
-18 -10 -22 1 -5 1 -19 0 -32 -1 -19 -4 -21 -20 -13 -25 14 -32 4 -20 -26 13
-34 11 -37 -8 -22 -15 13 -16 12 -11 -8 8 -32 1 -29 -17 7 -9 17 -11 30 -5 30
5 0 10 11 10 25 0 37 -17 30 -31 -12 -9 -28 -9 -38 0 -41 6 -2 11 -8 11 -14 0
-6 -7 -7 -15 -4 -10 4 -15 1 -13 -9 2 -7 -1 -13 -7 -12 -11 2 -11 11 0 42 3
11 -3 4 -13 -15 -13 -22 -17 -39 -11 -46 6 -8 1 -10 -17 -6 -20 3 -25 2 -19
-7 4 -7 13 -10 21 -7 7 3 23 -3 35 -13 19 -16 20 -18 6 -24 -10 -4 -17 -2 -17
3 0 6 -5 10 -11 10 -5 0 -7 -4 -4 -10 3 -6 -1 -7 -9 -4 -9 3 -24 3 -33 -1 -17
-6 -17 -7 1 -21 12 -8 15 -14 7 -14 -11 0 -11 -3 0 -17 10 -11 10 -14 2 -9 -9
5 -13 -1 -13 -19 0 -18 6 -29 20 -32 11 -3 17 -9 14 -15 -3 -5 0 -15 6 -23 21
-26 29 -16 14 15 -9 16 -13 34 -10 39 4 5 2 12 -3 16 -6 3 -8 12 -5 20 5 12 8
12 22 -2 11 -10 17 -12 20 -4 5 14 52 15 52 1 0 -5 -6 -10 -12 -10 -7 0 0 -11
17 -24 l30 -24 -18 -36 c-9 -20 -17 -43 -17 -50 0 -8 -10 -12 -25 -11 -18 2
-25 -2 -26 -13 0 -15 -1 -15 -7 -1 -15 33 -49 67 -68 66 -14 -2 -23 9 -33 41
-9 23 -19 42 -24 42 -5 0 -6 -8 -2 -17 7 -20 8 -23 6 -42 -1 -11 -4 -11 -18 0
-15 13 -15 12 -5 -8 14 -26 23 -32 63 -43 20 -6 27 -5 23 2 -4 6 -1 9 7 6 8
-3 13 -14 11 -24 -2 -14 -1 -16 6 -6 7 11 10 10 16 -3 10 -28 7 -37 -11 -31
-13 4 -12 1 5 -13 30 -26 28 -30 -13 -21 -28 6 -34 5 -26 -4 16 -19 2 -27 -23
-14 -19 10 -20 10 -7 -6 13 -15 13 -19 0 -27 -12 -8 -12 -10 1 -18 8 -5 19 -7
25 -3 5 3 2 -5 -7 -18 -9 -14 -21 -24 -28 -22 -6 1 -10 -3 -9 -10 4 -30 -2
-48 -15 -48 -7 0 -16 -9 -19 -20 -3 -11 -12 -20 -21 -20 -10 0 -16 -8 -16 -21
0 -16 -4 -19 -17 -14 -10 4 -24 10 -32 13 -10 4 -13 1 -8 -11 10 -27 -3 -48
-25 -41 -13 4 -18 2 -14 -4 9 -15 -21 -34 -43 -27 -14 4 -21 0 -27 -17 -4 -13
-7 -26 -6 -30 3 -13 -23 -9 -37 5 -10 10 -11 7 -6 -16 6 -23 5 -26 -10 -21
-12 5 -16 2 -13 -12 2 -11 -3 -19 -12 -19 -8 0 -14 -8 -14 -17 1 -14 -2 -16
-18 -7 -13 7 -23 8 -27 1 -3 -5 -21 -17 -40 -27 -28 -14 -35 -14 -42 -3 -7 10
-9 10 -9 0 0 -7 -4 -10 -10 -7 -5 3 -10 -2 -11 -12 0 -16 -1 -16 -8 2 l-8 20
-5 -20 c-5 -18 -6 -18 -7 3 0 13 -5 21 -10 18 -5 -4 -11 0 -14 6 -2 7 -8 0
-12 -15 -4 -17 -13 -26 -20 -23 -7 2 -18 -1 -24 -7 -8 -8 -11 -6 -11 8 -1 19
-1 19 -14 3 -13 -18 -32 -25 -22 -9 3 5 -1 12 -10 15 -8 3 -13 2 -10 -3 6 -9
-17 -23 -44 -27 -65 -9 -120 -12 -120 -6 0 10 -62 8 -79 -2 -11 -7 -13 -5 -8
9 6 15 3 17 -22 13 -17 -2 -28 -1 -25 4 3 4 -11 8 -31 8 -32 0 -36 3 -33 22 3
20 -3 24 -46 33 -27 6 -51 16 -54 23 -2 7 -8 12 -13 12 -4 0 -23 16 -41 36
-52 57 -72 75 -91 85 -14 8 -12 1 9 -30 14 -22 35 -43 45 -46 11 -4 19 -11 19
-16 0 -6 23 -31 51 -57 29 -26 61 -58 73 -71 54 -61 75 -77 123 -94 29 -10 58
-15 64 -11 9 5 10 2 6 -9 -5 -13 -1 -17 14 -17 11 0 17 -4 14 -10 -3 -6 4 -10
18 -10 14 0 41 -7 60 -15 20 -8 46 -15 59 -15 13 0 48 -4 78 -9 30 -5 83 -10
118 -10 38 -1 62 -5 62 -12 0 -7 12 -10 30 -7 16 2 31 0 33 -5 2 -8 55 4 272
63 44 12 104 24 135 26 30 3 83 7 118 10 43 4 62 2 62 -6 0 -6 4 -9 9 -6 5 3
14 -8 20 -24 5 -17 6 -30 2 -30 -15 0 -6 -73 9 -78 8 -3 19 -11 23 -19 5 -7
13 -11 18 -7 5 3 16 1 23 -5 10 -8 18 -6 31 9 10 11 24 20 32 20 7 0 13 4 13
8 0 5 20 7 45 5 26 -2 45 1 45 7 0 5 8 10 18 10 14 0 15 2 2 10 -8 5 -11 10
-7 10 5 0 1 7 -7 16 -9 8 -16 24 -16 34 0 10 -22 40 -48 67 -27 26 -52 57 -56
68 -10 26 -18 92 -17 128 1 16 -1 33 -5 38 -3 6 -7 31 -9 55 -2 24 -8 51 -14
58 -7 8 -10 25 -7 38 36 160 84 555 81 666 -1 84 11 115 17 40 3 -39 5 -43 28
-40 14 2 36 12 50 23 14 11 38 27 54 37 57 33 88 74 130 172 3 8 4 -1 1 -20
-10 -67 -80 -153 -162 -198 -13 -8 6 -51 118 -275 74 -146 134 -265 135 -264
3 3 1104 3149 1104 3153 0 2 -605 4 -1345 4 -740 0 -1345 -2 -1345 -5 0 -3 36
-77 80 -165 68 -135 77 -160 62 -164 -9 -2 -62 -14 -117 -26 -189 -42 -244
-60 -375 -124 -112 -54 -250 -189 -250 -245 0 -11 -8 -22 -17 -25 -15 -6 -15
-8 -3 -17 10 -5 11 -12 5 -16 -20 -15 -35 -75 -23 -90 8 -10 7 -12 -5 -7 -9 3
-24 -3 -36 -15 -12 -12 -25 -21 -29 -21 -5 0 -15 -11 -22 -25 -16 -29 -27 -32
-34 -7 -2 9 -48 211 -101 447 -53 237 -101 447 -106 468 l-10 37 -619 0 -620
0 0 -869z m3165 439 c3 -5 2 -10 -4 -10 -5 0 -13 5 -16 10 -3 6 -2 10 4 10 5
0 13 -4 16 -10z m40 -20 c3 -5 2 -10 -4 -10 -5 0 -13 5 -16 10 -3 6 -2 10 4
10 5 0 13 -4 16 -10z m55 -31 l25 -20 -32 16 c-18 8 -33 18 -33 20 0 10 16 4
40 -16z m164 -104 c32 -30 54 -55 49 -55 -5 0 -36 25 -68 55 -33 30 -55 55
-50 55 6 0 36 -25 69 -55z m107 -106 c53 -79 67 -103 68 -112 2 -17 -19 5 -34
37 -9 18 -24 42 -33 52 -16 18 -45 74 -38 74 1 0 18 -23 37 -51z m-1665 -216
c-11 -11 -17 4 -9 23 7 18 8 18 11 1 2 -10 1 -21 -2 -24z m74 11 c0 -14 1 -14
16 0 22 22 25 20 19 -11 -5 -24 -4 -25 5 -10 6 9 15 15 21 12 5 -4 9 2 9 11 0
15 3 14 24 -5 16 -15 25 -18 28 -10 3 8 9 6 22 -6 12 -13 20 -15 28 -7 8 8 15
7 24 -6 11 -15 13 -15 24 9 6 14 18 26 26 26 16 0 19 -14 4 -19 -6 -2 -6 -8 0
-18 6 -9 13 -11 18 -5 9 13 52 19 52 7 0 -11 43 -10 51 2 4 4 16 3 28 -3 15
-9 27 -9 41 -1 12 6 31 8 43 4 30 -9 151 -12 213 -4 55 7 77 3 68 -11 -3 -5 2
-9 10 -9 8 0 18 5 21 10 3 6 13 10 21 10 8 0 12 -4 9 -10 -4 -6 5 -10 20 -10
14 0 24 -4 21 -9 -3 -5 6 -12 20 -15 14 -4 44 -20 66 -36 23 -17 49 -30 58
-30 10 0 33 -6 51 -14 19 -8 37 -15 42 -15 4 -1 7 -4 6 -7 -1 -3 11 -18 25
-33 15 -15 23 -30 19 -34 -3 -4 -2 -7 4 -7 16 0 36 -91 24 -103 -7 -7 -7 -16
0 -29 6 -11 13 -45 15 -75 3 -31 7 -60 11 -66 4 -6 1 -7 -7 -2 -9 6 -12 4 -8
-7 4 -8 2 -21 -2 -29 -6 -9 -2 -20 11 -32 10 -10 19 -31 19 -46 0 -32 27 -50
36 -26 11 26 27 16 19 -12 -5 -22 -4 -25 8 -14 12 9 16 8 21 -4 3 -8 15 -15
26 -15 12 0 28 -13 40 -32 11 -18 20 -26 20 -18 1 12 4 11 15 -4 8 -11 12 -30
8 -47 -3 -18 -1 -29 6 -29 6 0 11 -14 11 -31 0 -28 -3 -31 -22 -25 -13 3 -33
6 -46 6 -13 0 -20 4 -17 10 4 6 11 8 16 5 5 -4 9 0 9 7 -1 15 -29 68 -30 54 0
-5 -8 -2 -17 5 -9 8 -14 9 -10 3 4 -7 -1 -18 -10 -25 -15 -12 -16 -11 -11 9 4
12 2 22 -3 22 -5 0 -11 12 -15 28 -16 76 -44 108 -64 73 -7 -14 -6 -20 6 -25
8 -3 12 -11 9 -16 -4 -6 4 -20 17 -31 22 -19 22 -20 1 -10 -29 14 -36 14 -30
-3 4 -11 -1 -11 -31 0 -21 7 -45 13 -56 14 -10 0 -43 14 -74 31 -52 31 -57 31
-105 20 -27 -6 -52 -9 -55 -7 -2 3 -16 0 -31 -6 -14 -5 -68 -14 -119 -18 -111
-10 -134 -24 -127 -78 2 -19 7 -37 9 -40 3 -3 67 -4 143 -3 111 1 148 -3 191
-18 l53 -18 -48 -7 c-26 -3 -129 -9 -228 -12 -99 -4 -238 -10 -310 -15 -71 -4
-258 -15 -415 -24 -157 -8 -325 -18 -375 -21 l-90 -6 6 108 c3 60 9 120 12
134 3 14 8 75 11 136 3 61 10 131 15 155 6 24 17 78 26 119 16 76 84 216 110
226 7 3 15 15 18 26 5 17 12 20 37 16 26 -4 34 -1 43 19 9 20 20 28 30 21 2
-2 11 5 21 15 17 16 19 17 30 1 17 -22 62 -26 78 -6 10 12 10 14 1 8 -15 -8
-16 -5 -7 18 8 21 24 21 24 0z m-186 -58 c-3 -9 -10 -13 -15 -10 -5 3 -3 11 4
19 15 16 19 13 11 -9z m1929 -166 c-3 -12 -8 -19 -11 -16 -5 6 5 36 12 36 2 0
2 -9 -1 -20z m-2326 -60 c-1 -22 -17 -28 -17 -7 0 12 9 27 16 27 2 0 2 -9 1
-20z m2333 -70 c0 -5 -5 -10 -11 -10 -5 0 -7 5 -4 10 3 6 8 10 11 10 2 0 4 -4
4 -10z m-5 -140 c-9 -41 -17 -33 -9 9 4 17 9 30 11 27 3 -2 2 -19 -2 -36z
m-15 -74 c0 -3 -4 -8 -10 -11 -5 -3 -10 -1 -10 4 0 6 5 11 10 11 6 0 10 -2 10
-4z m-2300 -135 c0 -6 -4 -13 -10 -16 -5 -3 -10 1 -10 9 0 9 5 16 10 16 6 0
10 -4 10 -9z m22 -100 c2 -17 1 -28 -4 -25 -8 5 -12 54 -4 54 2 0 6 -13 8 -29z
m1193 10 c-3 -6 -11 -11 -17 -11 -6 0 -6 6 2 15 14 17 26 13 15 -4z m1055 -73
c0 -14 -30 -41 -37 -34 -3 3 0 12 6 20 10 12 10 20 0 38 -12 23 -12 23 10 4
11 -11 21 -23 21 -28z m-353 14 c8 -5 6 -13 -7 -30 -22 -27 -80 -31 -80 -6 0
12 6 15 24 10 18 -4 25 -1 29 14 5 21 15 24 34 12z m-300 -48 c-3 -3 -12 -4
-19 -1 -8 3 -5 6 6 6 11 1 17 -2 13 -5z m620 -36 c-3 -8 -6 -5 -6 6 -1 11 2
17 5 13 3 -3 4 -12 1 -19z m78 -66 c34 -51 55 -143 53 -227 l-1 -70 -7 91 c-8
108 -23 150 -61 169 -20 11 -26 20 -22 35 3 12 -2 29 -13 42 -19 21 -19 21 4
9 12 -7 33 -29 47 -49z m-1115 -52 c0 -40 0 -40 39 -40 38 0 39 -1 46 -40 7
-39 8 -40 46 -40 39 0 39 0 39 -40 l0 -40 -40 0 c-39 0 -40 1 -40 34 0 34 -1
35 -42 38 -42 3 -43 4 -46 41 -3 36 -4 37 -43 37 -39 0 -39 0 -39 39 0 42 8
49 53 50 25 1 27 -2 27 -39z m-970 -40 c0 -40 0 -40 39 -40 39 0 40 -1 43 -37
3 -36 5 -38 43 -43 38 -5 40 -7 43 -41 3 -31 -1 -37 -20 -43 -47 -12 -55 -8
-62 34 -6 39 -7 40 -46 40 -40 0 -40 0 -40 40 l0 40 -40 0 c-40 0 -40 0 -40
39 0 33 4 40 23 44 54 11 57 9 57 -33z m917 -102 c-3 -8 -6 -5 -6 6 -1 11 2
17 5 13 3 -3 4 -12 1 -19z m1210 -145 c-3 -10 -5 -4 -5 12 0 17 2 24 5 18 2
-7 2 -21 0 -30z m-226 -126 c-8 -8 -11 0 -10 29 1 39 1 39 11 11 7 -21 7 -32
-1 -40z m-44 -4 c-3 -10 -5 -2 -5 17 0 19 2 27 5 18 2 -10 2 -26 0 -35z m270
15 c-3 -7 -5 -2 -5 12 0 14 2 19 5 13 2 -7 2 -19 0 -25z m-131 -86 c-6 -19
-34 -37 -43 -29 -2 3 4 18 14 35 19 33 40 28 29 -6z m-328 -290 c2 -7 -1 -12
-7 -12 -6 0 -11 -7 -11 -15 0 -17 -2 -18 -24 -9 -9 3 -16 11 -16 16 0 6 7 7
16 4 12 -4 14 -1 9 13 -4 15 -1 19 12 17 9 -2 19 -8 21 -14z m-68 -17 c0 -8
-4 -15 -10 -15 -5 0 -7 7 -4 15 4 8 8 15 10 15 2 0 4 -7 4 -15z m35 -55 c3 -5
3 -15 -1 -21 -6 -11 -23 6 -24 24 0 10 18 9 25 -3z m48 -30 c-3 -11 -7 -20 -9
-20 -2 0 -4 9 -4 20 0 11 4 20 9 20 5 0 7 -9 4 -20z m-63 -210 c0 -5 -4 -10
-10 -10 -5 0 -10 5 -10 10 0 6 5 10 10 10 6 0 10 -4 10 -10z m-65 -89 c-3 -6
-11 -8 -17 -5 -6 4 -5 9 3 15 16 10 23 4 14 -10z"/>
<path d="M3100 3880 c0 -5 5 -10 11 -10 5 0 7 5 4 10 -3 6 -8 10 -11 10 -2 0
-4 -4 -4 -10z"/>
<path d="M3116 3775 c4 -8 8 -15 10 -15 2 0 4 7 4 15 0 8 -4 15 -10 15 -5 0
-7 -7 -4 -15z"/>
<path d="M3135 3561 c-3 -5 -1 -12 5 -16 5 -3 10 1 10 9 0 18 -6 21 -15 7z"/>
<path d="M1860 3421 c0 -6 -23 -8 -57 -6 -61 5 -103 -12 -103 -40 0 -8 -10
-20 -22 -26 -30 -15 -68 -50 -68 -62 0 -6 23 -7 58 -4 31 4 104 11 161 17 57
6 112 15 122 20 10 6 24 10 32 10 8 0 32 8 53 17 28 12 34 18 22 21 -19 4 -25
22 -8 22 7 0 7 6 1 19 -9 16 -24 19 -101 20 -54 1 -90 -2 -90 -8z"/>
<path d="M2522 2904 c10 -10 20 -15 24 -12 3 4 -5 12 -18 18 -22 12 -22 12 -6
-6z"/>
<path d="M2514 2812 c-13 -10 -36 -65 -24 -57 14 9 39 -54 38 -94 -1 -39 18
-63 32 -41 5 8 10 11 10 5 0 -5 5 -3 10 5 8 13 10 12 10 -2 0 -10 -5 -18 -10
-18 -6 0 -8 -10 -5 -22 10 -45 -6 -52 -80 -36 -61 14 -67 14 -73 -1 -3 -9 -12
-22 -19 -29 -21 -22 -15 -40 16 -47 17 -3 34 -17 42 -33 19 -36 26 -40 65 -38
19 1 34 -2 34 -6 0 -12 38 -10 45 2 3 6 1 10 -6 10 -7 0 -10 3 -7 6 4 3 16 1
27 -6 16 -8 21 -8 21 0 0 7 6 10 13 7 6 -2 11 -11 9 -19 -1 -9 5 -22 15 -29
14 -12 16 -12 8 0 -6 11 -4 13 9 8 10 -4 24 -7 32 -7 8 0 14 -7 14 -15 0 -8 4
-15 9 -15 5 0 7 9 4 20 -6 22 12 28 20 8 4 -9 6 -9 6 -1 1 16 -68 57 -102 59
-43 4 -81 22 -96 46 -11 18 -11 20 3 15 9 -4 15 -2 13 2 -1 5 14 20 33 33 31
21 35 29 34 66 0 30 -11 56 -36 94 -52 79 -104 137 -114 130z"/>
<path d="M0 1935 l0 -780 208 -69 c114 -38 275 -93 357 -121 l150 -53 -102
-32 c-190 -59 -458 -218 -543 -322 -73 -89 -70 -74 -70 -328 l0 -230 2560 0
2560 0 0 154 0 154 -88 70 c-48 39 -133 100 -188 136 -54 36 -126 85 -159 109
-33 25 -87 59 -120 76 -33 18 -73 45 -90 60 -16 16 -45 33 -63 39 -18 6 -66
32 -106 57 -40 25 -76 45 -81 45 -4 0 -32 20 -62 44 -30 25 -92 66 -139 91
-57 31 -92 58 -105 79 -10 17 -35 42 -55 56 -19 14 -63 52 -97 85 -61 60 -147
109 -209 122 l-32 6 25 -32 c55 -74 54 -64 2 -117 -54 -54 -308 -222 -448
-296 -242 -127 -639 -209 -866 -179 -99 13 -217 50 -269 85 -124 82 -210 227
-210 353 0 67 10 87 68 140 39 35 43 42 26 43 -40 0 -89 -23 -135 -65 -26 -25
-60 -46 -80 -50 -19 -3 -67 -22 -107 -41 -69 -33 -192 -78 -342 -126 -36 -11
-108 -40 -161 -64 -53 -24 -109 -46 -125 -50 l-29 -5 -400 801 c-220 441 -417
831 -437 868 l-38 67 0 -780z"/>
<path d="M3300 2699 c0 -5 5 -7 10 -4 6 3 10 8 10 11 0 2 -4 4 -10 4 -5 0 -10
-5 -10 -11z"/>
<path d="M3217 2590 c3 -11 7 -20 9 -20 2 0 4 9 4 20 0 11 -4 20 -9 20 -5 0
-7 -9 -4 -20z"/>
<path d="M1511 2584 c0 -11 3 -14 6 -6 3 7 2 16 -1 19 -3 4 -6 -2 -5 -13z"/>
<path d="M2229 2530 c-20 -13 -5 -22 21 -12 18 7 20 10 8 14 -8 4 -21 2 -29
-2z"/>
<path d="M1551 2424 c0 -11 3 -14 6 -6 3 7 2 16 -1 19 -3 4 -6 -2 -5 -13z"/>
<path d="M1561 2384 c0 -11 3 -14 6 -6 3 7 2 16 -1 19 -3 4 -6 -2 -5 -13z"/>
<path d="M2810 2369 c0 -5 -4 -8 -9 -4 -14 8 -19 -27 -7 -49 16 -28 69 -75 79
-69 5 3 -1 16 -13 28 l-22 24 21 -6 c29 -7 28 28 -1 62 -22 26 -48 33 -48 14z"/>
<path d="M2510 2250 c-14 -4 -41 -5 -62 -3 -29 4 -38 1 -47 -16 -10 -18 -19
-20 -74 -18 -34 2 -89 -1 -122 -6 -33 -5 -82 -10 -109 -11 -28 0 -51 -6 -53
-13 -6 -17 48 -21 81 -5 40 19 129 26 198 14 32 -5 60 -6 63 -3 3 3 48 5 100
5 73 1 95 -2 95 -12 0 -8 6 -12 12 -10 7 3 18 -1 25 -8 7 -7 21 -11 30 -9 10
2 23 4 30 4 20 1 53 43 53 66 0 18 -6 21 -37 21 -21 -1 -65 2 -98 6 -33 3 -71
3 -85 -2z"/>
<path d="M3188 2170 c-10 -9 -18 -23 -18 -31 0 -12 2 -11 10 1 8 12 12 13 19
2 6 -11 9 -9 13 6 8 30 -5 41 -24 22z"/>
<path d="M2390 1980 c0 -5 5 -10 11 -10 5 0 7 5 4 10 -3 6 -8 10 -11 10 -2 0
-4 -4 -4 -10z"/>
<path d="M1710 1851 c0 -6 4 -11 9 -11 5 0 12 -11 15 -25 4 -14 11 -25 16 -25
14 0 -12 62 -28 68 -7 2 -12 -1 -12 -7z"/>
</g>
</svg>
