<svg width="221" height="45" viewBox="0 0 221 45" fill="none" xmlns="http://www.w3.org/2000/svg">
<path d="M41.027 11.2416C41.027 8.17726 37.316 6.65581 35.1706 8.84051L20.6837 23.5923L0 43.9668H41.027V11.2416Z" fill="url(#paint0_linear_479_25841)"/>
<path opacity="0.8" d="M0.00292969 11.2416C0.00292969 8.17726 3.71391 6.65581 5.85935 8.84051L20.3462 23.5923L41.0299 43.9668H0.00292969V11.2416Z" fill="url(#paint1_linear_479_25841)"/>
<path d="M84.5347 19.0769C87.3007 19.0769 89.5459 20.0057 91.2703 21.8633C92.9624 23.6556 93.8083 26.0998 93.8083 29.1957V44.2027H86.4871V29.8312C86.4871 28.5602 86.1781 27.5826 85.5597 26.8982C84.974 26.1812 84.1115 25.8228 82.9729 25.8228C81.7688 25.8228 80.8253 26.2301 80.142 27.0448C79.4914 27.8596 79.1658 28.9839 79.1658 30.4178V44.2027H71.8446V29.8312C71.8446 28.5602 71.5357 27.5826 70.9172 26.8982C70.3315 26.1812 69.4691 25.8228 68.3304 25.8228C67.1263 25.8228 66.1829 26.2301 65.4995 27.0448C64.8489 27.8596 64.5234 28.9839 64.5234 30.4178V44.2027H57.2021V19.7613H64.5234V22.0099C65.8573 20.0546 68.0376 19.0769 71.0637 19.0769C73.8945 19.0769 76.026 20.1524 77.4575 22.3032C78.9545 20.1524 81.3134 19.0769 84.5347 19.0769ZM116.531 22.0588V19.7613H123.852V44.2027H116.531V41.9053C114.838 43.8932 112.414 44.8871 109.258 44.8871C106.037 44.8871 103.287 43.6488 101.01 41.172C98.7317 38.6953 97.593 35.632 97.593 31.982C97.593 28.3647 98.7317 25.3177 101.01 22.8409C103.32 20.3316 106.069 19.0769 109.258 19.0769C112.414 19.0769 114.838 20.0709 116.531 22.0588ZM104.914 31.982C104.914 33.807 105.451 35.2572 106.525 36.3326C107.599 37.408 108.997 37.9457 110.722 37.9457C112.447 37.9457 113.846 37.408 114.92 36.3326C115.994 35.2572 116.531 33.807 116.531 31.982C116.531 30.1571 115.994 28.7069 114.92 27.6314C113.846 26.556 112.447 26.0183 110.722 26.0183C108.997 26.0183 107.599 26.556 106.525 27.6314C105.451 28.7069 104.914 30.1571 104.914 31.982ZM143.524 31.982L152.651 44.2027H144.353L136.544 33.3996V44.2027H129.223V9.98471H136.544V30.4666L143.865 19.7613H152.407L143.524 31.982ZM177.732 34.915H160.405C161.219 37.1962 163.171 38.3368 166.262 38.3368C168.247 38.3368 169.809 37.7176 170.948 36.4792L176.805 39.8522C174.43 43.2088 170.883 44.8871 166.165 44.8871C162.098 44.8871 158.811 43.665 156.306 41.2209C153.865 38.7767 152.645 35.6971 152.645 31.982C152.645 28.3321 153.849 25.2688 156.257 22.792C158.697 20.3153 161.821 19.0769 165.628 19.0769C169.175 19.0769 172.119 20.3153 174.462 22.792C176.838 25.2036 178.025 28.2669 178.025 31.982C178.025 33.0248 177.928 34.0025 177.732 34.915ZM160.259 29.4401H170.753C170.037 26.8656 168.312 25.5784 165.579 25.5784C162.748 25.5784 160.975 26.8656 160.259 29.4401ZM198.675 16.3395C197.829 17.1868 196.804 17.6104 195.6 17.6104C194.396 17.6104 193.355 17.1868 192.476 16.3395C191.63 15.4596 191.207 14.4168 191.207 13.211C191.207 12.0052 191.63 10.9786 192.476 10.1314C193.355 9.25147 194.396 8.81152 195.6 8.81152C196.804 8.81152 197.829 9.25147 198.675 10.1314C199.553 10.9786 199.993 12.0052 199.993 13.211C199.993 14.4168 199.553 15.4596 198.675 16.3395ZM199.26 44.2027H191.939V19.7613H199.26V44.2027ZM218.919 19.7613V26.8004H213.891V35.4527C213.891 36.3978 214.266 37.017 215.014 37.3103C215.763 37.5709 217.064 37.6524 218.919 37.5547V44.2027C214.299 44.6916 211.077 44.2516 209.255 42.8829C207.465 41.4816 206.57 39.0049 206.57 35.4527V26.8004H202.666V19.7613H206.57V15.1174L213.891 12.9177V19.7613H218.919Z" fill="#393939"/>
<defs>
<linearGradient id="paint0_linear_479_25841" x1="34.5534" y1="7.81054" x2="34.5534" y2="43.9668" gradientUnits="userSpaceOnUse">
<stop stop-color="#FF7F09"/>
<stop offset="1" stop-color="#F02C01"/>
</linearGradient>
<linearGradient id="paint1_linear_479_25841" x1="9.17051" y1="7.81054" x2="9.17051" y2="43.9668" gradientUnits="userSpaceOnUse">
<stop stop-color="#1859FF"/>
<stop offset="1" stop-color="#1611B8"/>
</linearGradient>
</defs>
</svg>
