<svg width="373" height="143" viewBox="0 0 373 143" fill="none" xmlns="http://www.w3.org/2000/svg">
<path d="M28.9521 16L31.9404 11.8497L29.2012 8.03143H30.6123L32.6874 10.9366L34.7626 8.03143H36.1737L33.4345 11.8497L36.4227 16H35.0116L32.6874 12.7628L30.3632 16H28.9521Z" fill="black"/>
<path d="M69.0029 16L71.9911 11.8497L69.2519 8.03143H70.663L72.7382 10.9366L74.8133 8.03143H76.2244L73.4852 11.8497L76.4735 16H75.0624L72.7382 12.7628L70.414 16H69.0029ZM76.7303 19.4862L81.7106 4.21316H82.7897L77.8093 19.4862H76.7303ZM84.8687 14.8379H90.9282V16H83.4576C83.4576 15.336 83.5683 14.7272 83.7897 14.1739C84.0221 13.6205 84.3209 13.1557 84.6861 12.7794C85.0624 12.392 85.4719 12.0323 85.9146 11.7003C86.3573 11.3683 86.7945 11.0584 87.2261 10.7706C87.6688 10.4829 88.0728 10.1896 88.438 9.89076C88.8143 9.59194 89.1131 9.25438 89.3344 8.87809C89.5669 8.49073 89.6831 8.07017 89.6831 7.6164C89.6831 6.94129 89.4617 6.39898 89.019 5.98948C88.5874 5.57999 87.9787 5.37524 87.1929 5.37524C86.3407 5.37524 85.6656 5.70726 85.1676 6.37131C84.9573 6.648 84.8023 6.98002 84.7027 7.36738L83.6236 6.86935C83.7786 6.34918 83.9999 5.90648 84.2877 5.54125C84.996 4.65585 85.9644 4.21316 87.1929 4.21316C88.2996 4.21316 89.1961 4.53965 89.8823 5.19263C90.5795 5.83454 90.9282 6.64246 90.9282 7.6164C90.9282 8.18084 90.8009 8.70654 90.5463 9.19351C90.2918 9.66941 89.9708 10.0734 89.5835 10.4054C89.1961 10.7264 88.7589 11.0639 88.272 11.4181C87.785 11.7722 87.3202 12.0987 86.8775 12.3975C86.4458 12.6964 86.0419 13.0616 85.6656 13.4932C85.2893 13.9138 85.0237 14.362 84.8687 14.8379Z" fill="black"/>
<path d="M1 22.0625L63.1352 22.0624" stroke="black" stroke-width="0.830059"/>
<path d="M63.1367 18.6289L63.1367 25.4961" stroke="black" stroke-width="0.830059"/>
<path d="M1 18.6289L1 25.4961" stroke="black" stroke-width="0.830059"/>
<path d="M63.1367 22.0625L94.1365 22.0625" stroke="black" stroke-width="0.830059"/>
<path d="M94.1348 18.6289L94.1348 25.4961" stroke="black" stroke-width="0.830059"/>
<path d="M63.1367 18.6289L63.1367 25.4961" stroke="black" stroke-width="0.830059"/>
<path d="M34.7603 79.965H63.1352V112.684H56.347C43.8566 112.684 33.7194 122.822 33.7194 135.312V142.1H1V135.312C1 118.658 8.37657 103.724 20.0524 93.5415H1V86.7532C1 56.2513 25.845 31.4062 56.347 31.4062H63.1352V64.1257H56.347C46.2098 64.1257 37.6566 70.8234 34.7603 79.965Z" fill="#DEDEDE"/>
<path d="M113.459 69.5982V71.4084H126.402V81.7266H113.459V121.551H100.516V81.7266H94.1348V71.4084H100.516V68.1501C100.516 56.067 107.395 52.2655 113.504 51.2699C114.862 51.0436 116.174 50.9531 117.396 50.9531H126.356V61.9501H120.745C115.902 61.9501 113.459 64.6654 113.459 69.5982Z" fill="#DEDEDE"/>
<path d="M129.479 96.4826C129.479 79.512 142.784 70.4609 155.908 70.4609C168.941 70.4609 182.336 79.5119 182.336 96.5279C182.336 113.499 168.941 122.595 155.908 122.595C142.784 122.55 129.479 113.453 129.479 96.4826ZM155.908 110.874C163.148 110.874 169.529 105.488 169.529 96.4826C169.529 87.5221 163.148 82.0915 155.908 82.0915C148.667 82.0915 142.195 87.4769 142.195 96.4826C142.24 105.488 148.667 110.874 155.908 110.874Z" fill="#DEDEDE"/>
<path d="M225.285 96.481C225.285 79.5103 238.5 70.4141 251.714 70.4141C260.584 70.4141 268.504 74.5775 273.301 82.7687L263.842 88.8329C261.218 84.8957 257.009 82.0899 251.805 82.0899C244.564 82.0899 238.002 87.4752 238.002 96.481C238.002 105.441 244.564 110.872 251.805 110.872C257.009 110.872 261.263 108.066 263.842 104.129L273.301 110.193C268.459 118.294 260.584 122.548 251.714 122.548C238.5 122.548 225.285 113.452 225.285 96.481Z" fill="#DEDEDE"/>
<path d="M317.56 70.4141V73.9892C313.396 71.6359 308.554 70.4141 303.802 70.4141C303.349 70.4141 302.897 70.4141 302.444 70.4593C289.773 71.0476 277.373 80.0534 277.373 96.481C277.373 112.863 289.773 121.914 302.444 122.503C302.897 122.503 303.349 122.548 303.802 122.548C308.554 122.548 313.351 121.326 317.56 118.973V121.598H330.503V70.4593H317.56V70.4141ZM289.909 96.481C289.909 87.1132 296.652 81.9994 303.893 81.9994C311.133 81.9994 317.876 87.0227 317.876 96.481C317.876 105.939 311.133 110.963 303.893 110.963C296.652 110.963 289.909 105.849 289.909 96.481Z" fill="#DEDEDE"/>
<path d="M221.798 70.823V83.1776C220.667 82.9966 219.671 82.8608 218.54 82.8608C208.81 82.8608 202.701 89.6038 202.701 99.6505V121.554H189.758V70.4609H202.701V77.566C208.493 71.4113 214.512 70.5514 217.001 70.4609C217.047 70.4609 217.092 70.4609 217.137 70.4609C217.816 70.4609 218.178 70.4609 218.178 70.4609C218.269 70.4609 218.359 70.4609 218.45 70.4609C219.581 70.4609 220.622 70.5514 221.798 70.823Z" fill="#DEDEDE"/>
<path d="M372.363 70.823V83.1776C371.186 82.9966 370.236 82.8608 369.104 82.8608C359.375 82.8608 353.265 89.6038 353.265 99.6505V121.554H340.322V70.4609H353.265V77.566C359.058 71.4113 365.077 70.5514 367.566 70.4609C367.611 70.4609 367.656 70.4609 367.702 70.4609C368.335 70.4609 368.742 70.4609 368.742 70.4609C368.833 70.4609 368.923 70.4609 369.014 70.4609C370.145 70.4609 371.232 70.5514 372.363 70.823Z" fill="#DEDEDE"/>
</svg>
