<svg width="284" height="86" viewBox="0 0 284 86" fill="none" xmlns="http://www.w3.org/2000/svg">
<path d="M26.3686 37.8139H48.022V62.7827H42.8418C33.3101 62.7827 25.5743 70.5186 25.5743 80.0502V85.2305H0.605469V80.0502C0.605469 67.3413 6.23467 55.9448 15.1447 48.1744H0.605469V42.9941C0.605469 19.7175 19.5652 0.757812 42.8418 0.757812H48.022V25.7266H42.8418C35.1059 25.7266 28.5788 30.8378 26.3686 37.8139Z" fill="#2580D5"/>
<path d="M86.4261 29.9042V31.2856H96.3031V39.1596H86.4261V69.5504H76.5491V39.1596H71.6797V31.2856H76.5491V28.7991C76.5491 19.5782 81.7984 16.6773 86.4607 15.9175C87.4967 15.7448 88.4982 15.6758 89.4307 15.6758H96.2686V24.0678H91.9863C88.291 24.0678 86.4261 26.1399 86.4261 29.9042Z" fill="black"/>
<path d="M98.6523 50.4201C98.6523 37.4695 108.806 30.5625 118.821 30.5625C128.767 30.5625 138.989 37.4695 138.989 50.4547C138.989 63.4053 128.767 70.3468 118.821 70.3468C108.806 70.3123 98.6523 63.3708 98.6523 50.4201ZM118.821 61.4023C124.346 61.4023 129.216 57.2926 129.216 50.4201C129.216 43.5822 124.346 39.438 118.821 39.438C113.295 39.438 108.357 43.5477 108.357 50.4201C108.391 57.2926 113.295 61.4023 118.821 61.4023Z" fill="black"/>
<path d="M171.762 50.4195C171.762 37.4689 181.846 30.5273 191.93 30.5273C198.699 30.5273 204.743 33.7046 208.403 39.9554L201.186 44.5831C199.182 41.5785 195.971 39.4374 191.999 39.4374C186.474 39.4374 181.466 43.547 181.466 50.4195C181.466 57.2574 186.474 61.4016 191.999 61.4016C195.971 61.4016 199.217 59.2605 201.186 56.2559L208.403 60.8836C204.708 67.0654 198.699 70.3117 191.93 70.3117C181.846 70.3117 171.762 63.3701 171.762 50.4195Z" fill="black"/>
<path d="M242.179 30.5273V33.2556C239.002 31.4598 235.306 30.5273 231.68 30.5273C231.335 30.5273 230.989 30.5273 230.644 30.5619C220.974 31.0108 211.512 37.8833 211.512 50.4195C211.512 62.9212 220.974 69.8282 230.644 70.2771C230.989 70.2771 231.335 70.3117 231.68 70.3117C235.306 70.3117 238.967 69.3792 242.179 67.5834V69.5864H252.056V30.5619H242.179V30.5273ZM221.078 50.4195C221.078 43.2708 226.224 39.3683 231.749 39.3683C237.275 39.3683 242.421 43.2017 242.421 50.4195C242.421 57.6373 237.275 61.4707 231.749 61.4707C226.224 61.4707 221.078 57.5682 221.078 50.4195Z" fill="black"/>
<path d="M169.103 30.8388V40.2668C168.24 40.1287 167.48 40.0251 166.617 40.0251C159.192 40.0251 154.529 45.1708 154.529 52.8376V69.5525H144.652V30.5625H154.529V35.9845C158.95 31.2877 163.543 30.6316 165.442 30.5625C165.477 30.5625 165.512 30.5625 165.546 30.5625C166.064 30.5625 166.34 30.5625 166.34 30.5625C166.409 30.5625 166.478 30.5625 166.548 30.5625C167.411 30.5625 168.205 30.6316 169.103 30.8388Z" fill="black"/>
<path d="M284.002 30.8388V40.2668C283.104 40.1287 282.378 40.0251 281.515 40.0251C274.09 40.0251 269.428 45.1708 269.428 52.8376V69.5525H259.551V30.5625H269.428V35.9845C273.848 31.2877 278.441 30.6316 280.341 30.5625C280.375 30.5625 280.41 30.5625 280.444 30.5625C280.928 30.5625 281.239 30.5625 281.239 30.5625C281.308 30.5625 281.377 30.5625 281.446 30.5625C282.309 30.5625 283.138 30.6316 284.002 30.8388Z" fill="black"/>
</svg>
