<svg width="169" height="92" viewBox="0 0 169 92" fill="none" xmlns="http://www.w3.org/2000/svg">
<rect y="10.7607" width="34.3251" height="80.0396" rx="17.1626" transform="rotate(-3.77193 0 10.7607)" fill="#EAB846"/>
<rect x="32" y="8.76074" width="34.3251" height="80.0396" rx="17.1626" transform="rotate(-3.77193 32 8.76074)" fill="#EAB846"/>
<rect x="65" y="6.76074" width="34.3251" height="80.0396" rx="17.1626" transform="rotate(-3.77193 65 6.76074)" fill="#EAB846"/>
<rect x="97" y="4.76074" width="34.3251" height="80.0396" rx="17.1626" transform="rotate(-3.77193 97 4.76074)" fill="#EAB846"/>
<rect x="129" y="2.76074" width="34.3251" height="80.0396" rx="17.1626" transform="rotate(-3.77193 129 2.76074)" fill="#EAB846"/>
<path d="M33.4587 39.2317L34.6548 57.3741L31.3683 57.5908L30.1722 39.4483L33.4587 39.2317ZM50.1573 42.6861L50.3208 45.1665L42.4986 45.6822L42.3351 43.2018L50.1573 42.6861ZM44.0514 39.8145L47.2582 39.6031L48.1003 52.3772C48.1288 52.8083 48.2155 53.1348 48.3606 53.3565C48.5113 53.572 48.6986 53.7138 48.9225 53.7821C49.1465 53.8504 49.3914 53.8758 49.6571 53.8583C49.8579 53.845 50.04 53.8182 50.2034 53.7778C50.3727 53.7369 50.5009 53.7018 50.588 53.6723L51.2936 56.1437C51.1262 56.214 50.8854 56.2952 50.5712 56.3871C50.2629 56.4786 49.8817 56.5452 49.4277 56.587C48.6261 56.6636 47.8947 56.5902 47.2334 56.3669C46.5718 56.1377 46.0333 55.752 45.618 55.21C45.2085 54.6676 44.9787 53.971 44.9286 53.1201L44.0514 39.8145ZM56.7098 47.9127L57.2354 55.8854L54.0286 56.0968L52.8325 37.9544L55.9685 37.7477L56.4199 44.5954L56.5794 44.5848C56.8477 43.7961 57.3009 43.1582 57.939 42.6713C58.5827 42.1781 59.4242 41.8972 60.4636 41.8287C61.4086 41.7664 62.2455 41.9099 62.9743 42.2593C63.7032 42.6086 64.2847 43.1515 64.7188 43.8881C65.1588 44.6242 65.415 45.5415 65.4874 46.64L66.0586 55.3037L62.8518 55.5151L62.3133 47.3475C62.253 46.4321 61.9698 45.736 61.4639 45.2593C60.9634 44.7763 60.291 44.5626 59.4464 44.6183C58.8795 44.6556 58.3798 44.8131 57.9473 45.0908C57.5203 45.3621 57.1951 45.7365 56.9715 46.2139C56.7538 46.6909 56.6666 47.2571 56.7098 47.9127ZM69.3274 55.0882L68.4304 41.4814L71.6372 41.27L72.5342 54.8768L69.3274 55.0882ZM69.9153 39.4439C69.4074 39.4774 68.9593 39.3379 68.5709 39.0254C68.1822 38.707 67.9721 38.3086 67.9405 37.8303C67.9086 37.346 68.0646 36.9235 68.4086 36.5627C68.7522 36.196 69.1779 35.996 69.6858 35.9625C70.1996 35.9286 70.6479 36.0711 71.0307 36.3898C71.4191 36.7023 71.6292 37.1007 71.6611 37.585C71.6927 38.0633 71.5367 38.4859 71.1931 38.8525C70.855 39.2129 70.4291 39.41 69.9153 39.4439ZM78.513 46.4752L79.0387 54.448L75.8319 54.6594L74.9348 41.0526L77.9999 40.8505L78.1523 43.1626L78.3118 43.1521C78.5745 42.3696 79.0337 41.7314 79.6891 41.2374C80.3505 40.743 81.1891 40.4623 82.2049 40.3953C83.1439 40.3334 83.9751 40.4803 84.6984 40.8359C85.4277 41.1912 86.0094 41.7371 86.4435 42.4736C86.8835 43.2098 87.1363 44.1213 87.2021 45.2084L87.7733 53.8721L84.5664 54.0835L84.028 45.9159C83.968 45.0064 83.6849 44.3103 83.1785 43.8277C82.6781 43.3447 82.0145 43.1304 81.1877 43.1849C80.6266 43.2219 80.1358 43.3788 79.7151 43.6557C79.3 43.9262 78.9835 44.3 78.7659 44.777C78.5541 45.2536 78.4698 45.8197 78.513 46.4752ZM93.6751 49.1946L93.411 45.324L93.9248 45.2901L98.4544 39.502L102.202 39.2549L96.6281 46.3486L95.9637 46.3924L93.6751 49.1946ZM91.0332 53.6572L89.8371 35.5148L93.044 35.3033L94.24 53.4458L91.0332 53.6572ZM99.5729 53.0942L94.7354 47.194L96.748 44.7926L103.409 52.8413L99.5729 53.0942ZM121.518 41.5937L118.616 42.1053C118.513 41.8155 118.35 41.5474 118.127 41.3012C117.909 41.0546 117.623 40.8628 117.27 40.726C116.917 40.5891 116.493 40.537 115.996 40.5697C115.329 40.6137 114.778 40.7954 114.342 41.1148C113.912 41.4337 113.715 41.8234 113.752 42.2836C113.772 42.6797 113.938 42.992 114.249 43.2206C114.567 43.4488 115.077 43.6198 115.778 43.7337L118.132 44.0768C119.437 44.2695 120.423 44.6464 121.089 45.2075C121.761 45.7682 122.131 46.5356 122.202 47.5097C122.252 48.3664 122.051 49.1389 121.598 49.8271C121.151 50.509 120.502 51.0619 119.652 51.4857C118.802 51.9095 117.81 52.1587 116.676 52.2335C115.011 52.3433 113.648 52.0832 112.586 51.4533C111.524 50.8175 110.854 49.88 110.576 48.6409L113.684 48.1335C113.866 48.7384 114.198 49.1821 114.679 49.4647C115.16 49.7474 115.77 49.8644 116.508 49.8157C117.27 49.7655 117.871 49.5687 118.311 49.2253C118.757 48.8815 118.965 48.4793 118.934 48.0187C118.909 47.6289 118.737 47.317 118.419 47.0829C118.107 46.8484 117.633 46.6839 116.998 46.5893L114.645 46.2551C113.322 46.0695 112.326 45.6754 111.658 45.073C110.989 44.4646 110.625 43.6642 110.565 42.6716C110.504 41.8334 110.684 41.092 111.104 40.4474C111.53 39.7966 112.145 39.2756 112.949 38.8844C113.759 38.487 114.708 38.2525 115.795 38.1808C117.389 38.0757 118.666 38.3325 119.627 38.9514C120.593 39.5698 121.223 40.4505 121.518 41.5937ZM131.067 51.2847C129.739 51.3723 128.568 51.1559 127.555 50.6355C126.542 50.1151 125.732 49.347 125.125 48.3312C124.524 47.315 124.177 46.1041 124.085 44.6986C123.992 43.293 124.177 42.0441 124.639 40.952C125.106 39.8594 125.808 38.9887 126.744 38.3398C127.68 37.6908 128.812 37.3226 130.141 37.235C131.47 37.1474 132.641 37.3638 133.654 37.8842C134.667 38.4046 135.474 39.1759 136.075 40.198C136.682 41.2197 137.032 42.4333 137.125 43.8389C137.217 45.2444 137.03 46.4906 136.562 47.5772C136.099 48.6635 135.4 49.5311 134.464 50.18C133.528 50.8289 132.396 51.1971 131.067 51.2847ZM130.916 48.7146C131.636 48.6671 132.225 48.4295 132.684 48.0019C133.141 47.5684 133.466 47.0072 133.658 46.3184C133.856 45.6292 133.928 44.8712 133.873 44.0444C133.818 43.2116 133.647 42.4666 133.361 41.8094C133.08 41.1458 132.684 40.6291 132.173 40.2595C131.662 39.8898 131.047 39.7287 130.326 39.7762C129.588 39.8249 128.987 40.0662 128.523 40.5001C128.066 40.9336 127.738 41.4979 127.541 42.1931C127.349 42.8819 127.28 43.6427 127.335 44.4754C127.39 45.3022 127.557 46.0444 127.838 46.7021C128.125 47.3594 128.523 47.8729 129.034 48.2425C129.55 48.6059 130.177 48.7632 130.916 48.7146Z" fill="white"/>
</svg>
